<?xml version="1.0"?>
<svg xmlns="http://www.w3.org/2000/svg" xmlns:xlink="http://www.w3.org/1999/xlink" version="1.1" id="Capa_1" x="0px" y="0px" viewBox="0 0 512 512" style="enable-background:new 0 0 512 512;" xml:space="preserve" width="512px" height="512px" class=""><g><path style="fill:#3B04DB" d="M506.368,225.259c-3.473-1.861-7.689-1.656-10.965,0.533L384,300.075v-1.408  C384,257.429,350.571,224,309.333,224l0,0H74.667C33.429,224,0,257.429,0,298.667l0,0v128c0,41.237,33.429,74.667,74.667,74.667  h234.667c41.237,0,74.667-33.429,74.667-74.667v-1.408l111.424,74.283c4.904,3.264,11.526,1.934,14.789-2.971  c1.164-1.749,1.785-3.803,1.786-5.904v-256C512.002,230.732,509.837,227.116,506.368,225.259z" data-original="#607D8B" class="active-path" data-old_color="#607D8B"/><g>
	<circle style="fill:#3B04DB" cx="288" cy="106.667" r="96" data-original="#455A64" class="" data-old_color="#455A64"/>
	<circle style="fill:#3B04DB" cx="74.667" cy="128" r="74.667" data-original="#455A64" class="" data-old_color="#455A64"/>
</g><path d="M501.333,501.333c-2.103-0.002-4.159-0.625-5.909-1.792L384,425.259v1.408c0,41.237-33.429,74.667-74.667,74.667H74.667  C33.429,501.333,0,467.904,0,426.667v-128C0,257.429,33.429,224,74.667,224h234.667C350.571,224,384,257.429,384,298.667l0,0v1.408  l111.424-74.283c4.904-3.264,11.526-1.934,14.789,2.971c1.164,1.749,1.785,3.803,1.786,5.904v256  C512,496.558,507.224,501.333,501.333,501.333z M74.667,245.333c-29.455,0-53.333,23.878-53.333,53.333v128  c0,29.455,23.878,53.333,53.333,53.333h234.667c29.455,0,53.333-23.878,53.333-53.333v-21.333  c0.003-5.891,4.781-10.664,10.672-10.661c2.101,0.001,4.155,0.623,5.904,1.786l111.424,74.283V254.592l-111.424,74.283  c-4.904,3.264-11.526,1.934-14.789-2.971c-1.164-1.749-1.785-3.803-1.786-5.904v-21.333c0-29.455-23.878-53.333-53.333-53.333  H74.667z" data-original="#000000" class="" data-old_color="#000000" style="fill:#3B04DB"/><path d="M288,202.667c-53.019,0-96-42.981-96-96s42.981-96,96-96s96,42.981,96,96S341.019,202.667,288,202.667z M288,32  c-41.237,0-74.667,33.429-74.667,74.667s33.429,74.667,74.667,74.667s74.667-33.429,74.667-74.667S329.237,32,288,32z" data-original="#000000" class="" data-old_color="#000000" style="fill:#3B04DB"/><path d="M74.667,202.667C33.429,202.667,0,169.237,0,128s33.429-74.667,74.667-74.667S149.333,86.763,149.333,128  S115.904,202.667,74.667,202.667z M74.667,74.667c-29.455,0-53.333,23.878-53.333,53.333s23.878,53.333,53.333,53.333  S128,157.455,128,128S104.122,74.667,74.667,74.667z" data-original="#000000" class="" data-old_color="#000000" style="fill:#3B04DB"/></g> </svg>
