<?xml version="1.0" encoding="utf-8"?>
<!-- Generator: Adobe Illustrator 23.0.0, SVG Export Plug-In . SVG Version: 6.00 Build 0)  -->
<svg version="1.1" id="Capa_1" xmlns="http://www.w3.org/2000/svg" xmlns:xlink="http://www.w3.org/1999/xlink" x="0px" y="0px"
	 viewBox="0 0 134.5 134.5" style="enable-background:new 0 0 134.5 134.5;" xml:space="preserve">
<style type="text/css">
	.st0{fill:#FF4E56;}
	.st1{fill:#FFFFFF;}
</style>
<path class="st0" d="M109.3,134.5h-84C11.3,134.5,0,123.2,0,109.3l0-84C0,11.3,11.3,0,25.3,0l84,0c13.9,0,25.3,11.3,25.3,25.3v84
	C134.5,123.2,123.2,134.5,109.3,134.5z"/>
<g>
	<g>
		<path class="st1" d="M111.9,20.7l-14.7,0c-16.5,0-27.2,11-27.2,28v12.9H55.2c-1.3,0-2.3,1-2.3,2.3v18.7c0,1.3,1,2.3,2.3,2.3H70
			v47.2c0,1.3,1,2.3,2.3,2.3h19.3c1.3,0,2.3-1,2.3-2.3V85h17.3c1.3,0,2.3-1,2.3-2.3l0-18.7c0-0.6-0.2-1.2-0.7-1.6
			c-0.4-0.4-1-0.7-1.6-0.7H93.9V50.7c0-5.3,1.3-7.9,8.1-7.9l9.9,0c1.3,0,2.3-1,2.3-2.3V23C114.2,21.8,113.2,20.7,111.9,20.7z"/>
	</g>
</g>
</svg>
