<?xml version="1.0" encoding="utf-8"?>
<!-- Generator: Adobe Illustrator 23.0.0, SVG Export Plug-In . SVG Version: 6.00 Build 0)  -->
<svg version="1.1" id="Layer_1" xmlns="http://www.w3.org/2000/svg" xmlns:xlink="http://www.w3.org/1999/xlink" x="0px" y="0px"
	 viewBox="0 0 134.5 134.5" style="enable-background:new 0 0 134.5 134.5;" xml:space="preserve">
<style type="text/css">
	.st0{fill:#FF4E56;}
	.st1{fill:#FFFFFF;}
</style>
<path class="st0" d="M109.3,134.5h-84C11.3,134.5,0,123.2,0,109.3l0-84C0,11.3,11.3,0,25.3,0l84,0c13.9,0,25.3,11.3,25.3,25.3v84
	C134.5,123.2,123.2,134.5,109.3,134.5z"/>
<g>
	<g>
		<path class="st1" d="M49.8,77.8h18.2c-3.2,9.1-11.9,15.7-22,15.6c-12.3-0.1-22.5-10-23-22.5c-0.5-13.3,10.1-24.3,23.2-24.3
			c6,0,11.4,2.3,15.6,6.1c1,0.9,2.5,0.9,3.4,0l6.7-6.4c1-1,1.1-2.7,0-3.7C65.4,36.4,56.6,32.5,47,32.3C26.4,31.9,9,49,8.9,69.8
			c-0.1,21,16.6,38,37.4,38c19.9,0,36.2-15.8,37.3-35.6c0-0.2,0-8.7,0-8.7H49.8c-1.4,0-2.5,1.1-2.5,2.5v9.3
			C47.3,76.7,48.5,77.8,49.8,77.8z"/>
		<path class="st1" d="M114.5,64.4v-9.1c0-1.2-1-2.2-2.2-2.2h-7.5c-1.2,0-2.2,1-2.2,2.2v9.1h-9c-1.2,0-2.2,1-2.2,2.2v7.6
			c0,1.2,1,2.2,2.2,2.2h9v9.1c0,1.2,1,2.2,2.2,2.2h7.5c1.2,0,2.2-1,2.2-2.2v-9.1h9c1.2,0,2.2-1,2.2-2.2v-7.6c0-1.2-1-2.2-2.2-2.2
			H114.5L114.5,64.4z"/>
	</g>
</g>
</svg>
