<?xml version="1.0"?>
<svg xmlns="http://www.w3.org/2000/svg" xmlns:xlink="http://www.w3.org/1999/xlink" version="1.1" id="Capa_1" x="0px" y="0px" viewBox="0 0 134.565 134.565" style="enable-background:new 0 0 134.565 134.565;" xml:space="preserve" width="512px" height="512px" class=""><g><g>
	<path d="M34.103,117.324c10.92,10.933,25.62,17.241,41.58,17.241l0,0c15.54,0,30.24-6.308,41.58-17.241   c10.92-10.933,17.22-26.072,17.22-41.631s-6.3-30.277-17.22-41.631c-11.34-11.354-26.04-17.241-41.58-17.241l0,0   c-10.08,0-20.16,2.523-28.56,7.569L23.603,1.262C22.763,0.421,21.083,0,19.823,0c-1.26,0.421-2.52,1.682-2.94,2.944l-3.78,10.092   l-10.08,3.785c-1.26,0.421-2.52,1.682-2.94,2.944c0,1.262,0.42,2.944,1.26,3.785l23.1,23.128c-5.04,8.831-7.56,18.923-7.56,29.016   C16.883,91.673,23.183,106.391,34.103,117.324z M78.203,72.329l-31.5-31.539l3.78-8.831c7.56-4.205,15.96-6.728,25.2-6.728l0,0   c13.44,0,26.04,5.046,35.7,14.718s14.7,22.287,14.7,35.744s-5.04,26.072-14.7,35.744c-9.66,9.251-22.26,14.718-35.7,14.718l0,0   c-13.44,0-26.04-5.046-35.7-14.718c-9.24-9.672-14.7-22.287-14.7-35.744c0-8.831,2.52-17.662,6.72-25.231l8.82-3.364l31.5,31.539   c0.84,0.841,2.1,1.262,2.94,1.262s2.1-0.421,2.94-1.262C79.883,76.954,79.883,74.011,78.203,72.329z M22.343,11.774l19.32,19.344   l-1.26,3.364l-19.32-19.344L22.343,11.774z M11.843,22.287l3.36-1.262l19.32,19.344l-3.36,1.262L11.843,22.287z" data-original="#000000" class="active-path" data-old_color="#000000" fill="#3B04DB"/>
	<path d="M75.683,46.257c15.96,0,29.4,13.036,29.4,29.436c0,7.99-2.94,15.139-8.4,21.026c-5.88,5.467-13.02,8.41-21,8.41l0,0   c-15.96,0-29.4-13.036-29.4-29.436c0-3.785,0.84-7.569,2.1-10.933c0.84-2.103,0-4.626-2.52-5.467c-2.1-0.841-4.62,0-5.46,2.523   c-1.68,4.205-2.52,9.251-2.52,13.877c0,20.605,16.8,37.846,37.8,37.846l0,0c10.08,0,19.74-4.205,26.46-11.354   c7.14-7.149,10.92-16.821,10.92-26.913c0-20.605-16.8-37.846-37.8-37.846l0,0c-5.04,0-9.66,0.841-14.28,2.944   c-2.1,0.841-3.36,3.364-2.1,5.467c0.84,2.103,3.36,3.364,5.46,2.103C68.123,47.098,71.903,46.257,75.683,46.257L75.683,46.257z" data-original="#000000" class="active-path" data-old_color="#000000" fill="#3B04DB"/>
	<path d="M75.683,84.103L75.683,84.103c-3.78,0-6.72-2.103-7.98-5.467c-0.84-2.103-2.94-3.364-5.46-2.523   c-2.1,0.841-3.36,2.944-2.52,5.467c2.1,6.728,8.4,11.354,15.96,11.354l0,0c4.62,0,8.82-1.682,11.76-5.046   c2.94-3.364,5.04-7.569,5.04-12.195c0-7.149-4.62-13.457-11.34-15.559c-2.1-0.841-4.62,0.421-5.46,2.523   c-0.84,2.103,0.42,4.626,2.52,5.467c3.36,1.262,5.46,4.205,5.46,7.99c0,2.103-0.84,4.205-2.52,5.887   C79.883,83.262,77.783,84.103,75.683,84.103z" data-original="#000000" class="active-path" data-old_color="#000000" fill="#3B04DB"/>
</g></g> </svg>
