<?xml version="1.0" encoding="utf-8"?>
<!-- Generator: Adobe Illustrator 23.0.0, SVG Export Plug-In . SVG Version: 6.00 Build 0)  -->
<svg version="1.1" id="Capa_1" xmlns="http://www.w3.org/2000/svg" xmlns:xlink="http://www.w3.org/1999/xlink" x="0px" y="0px"
	 viewBox="0 0 134.5 134.5" style="enable-background:new 0 0 134.5 134.5;" xml:space="preserve">
<style type="text/css">
	.st0{fill:#FF4E56;}
	.st1{fill:#FFFFFF;}
</style>
<path class="st0" d="M109.3,134.5h-84C11.3,134.5,0,123.2,0,109.3l0-84C0,11.3,11.3,0,25.3,0l84,0c13.9,0,25.3,11.3,25.3,25.3v84
	C134.5,123.2,123.2,134.5,109.3,134.5z"/>
<g>
	<g>
		<g>
			<path class="st1" d="M114.3,35.4c-3.5,1.7-7.2,2.8-11.1,3.3c4-2.6,7.1-6.7,8.5-11.6c-3.7,2.4-7.8,4.1-12.2,5.1
				c-3.5-4.1-8.6-6.7-14.1-6.7c-10.7,0-19.3,9.5-19.3,21c0,1.7,0.1,3.3,0.4,4.8c-16-0.9-30.2-9.2-39.8-22c-1.7,3.1-2.6,6.8-2.6,10.6
				c0,7.3,3.4,13.7,8.6,17.5c-3.1-0.1-6.1-1-8.7-2.6c0,0.1,0,0.1,0,0.2c0,10.2,6.7,18.7,15.5,20.7c-1.6,0.5-3.3,0.7-5.1,0.7
				c-1.2,0-2.5-0.1-3.7-0.4c2.5,8.3,9.6,14.5,18,14.7c-6.6,5.6-14.9,9-23.9,9c-1.6,0-3.1-0.1-4.6-0.3c8.5,6,18.7,9.4,29.6,9.4
				c35.5,0,54.9-32.1,54.9-59.8c0-0.9,0-1.8-0.1-2.7C108.5,43.4,111.7,39.7,114.3,35.4z"/>
		</g>
	</g>
</g>
</svg>
